<?xml version="1.0" standalone="no"?>
<!DOCTYPE svg PUBLIC "-//W3C//DTD SVG 20010904//EN"
 "http://www.w3.org/TR/2001/REC-SVG-20010904/DTD/svg10.dtd">
<svg version="1.0" xmlns="http://www.w3.org/2000/svg"
 width="445.000000pt" height="241.000000pt" viewBox="0 0 445.000000 241.000000"
 preserveAspectRatio="xMidYMid meet">

<g transform="translate(0.000000,241.000000) scale(0.100000,-0.100000)"
fill="#000000" stroke="none">
<path d="M710 2380 c0 -20 7 -20 1520 -20 1513 0 1520 0 1520 20 0 20 -7 20
-1520 20 -1513 0 -1520 0 -1520 -20z"/>
<path d="M1569 1971 c-86 -12 -126 -65 -84 -111 12 -14 17 -62 23 -231 l8
-214 -24 -20 c-31 -27 -27 -66 9 -79 35 -12 113 1 140 23 21 17 22 27 32 314
8 239 8 299 -3 311 -13 17 -25 17 -101 7z"/>
<path d="M2885 1973 c-56 -7 -76 -14 -95 -33 -25 -25 -25 -54 -1 -77 17 -16
19 -40 23 -236 5 -202 4 -219 -13 -227 -48 -26 -23 -90 35 -90 44 0 102 18
116 35 17 20 44 589 29 616 -10 19 -25 21 -94 12z"/>
<path d="M3138 1973 c-20 -5 -29 -26 -34 -78 -1 -22 -8 -83 -13 -135 -22 -196
-10 -358 29 -405 5 -6 29 -11 53 -13 68 -2 71 6 63 159 -4 97 -3 130 5 127 12
-4 109 -240 109 -264 0 -19 39 -42 61 -37 44 12 51 50 60 342 9 295 8 305 -40
299 -39 -5 -49 -39 -57 -196 -5 -94 -11 -141 -18 -139 -6 2 -23 46 -38 97 -34
120 -56 168 -79 175 -10 4 -24 18 -31 32 -14 27 -42 42 -70 36z"/>
<path d="M1001 1948 c-30 -78 -41 -473 -15 -548 19 -53 22 -56 79 -58 63 -3
68 10 59 171 -4 93 -3 129 4 122 12 -11 96 -221 107 -268 4 -15 16 -32 27 -38
27 -15 70 17 80 57 13 56 27 558 16 571 -18 22 -56 15 -74 -12 -13 -19 -18
-61 -23 -173 -3 -86 -10 -146 -16 -145 -5 1 -26 56 -46 122 -35 118 -58 161
-86 161 -7 0 -13 6 -13 14 0 45 -83 64 -99 24z"/>
<path d="M1811 1948 c-31 -79 -41 -468 -15 -549 9 -27 19 -49 23 -50 3 -1 27
-3 53 -5 66 -6 70 5 62 169 -5 93 -3 129 4 122 12 -11 96 -221 107 -268 10
-39 40 -53 71 -32 14 9 29 26 33 38 5 12 11 114 15 227 3 113 9 235 12 272 7
75 -3 98 -42 98 -44 0 -55 -36 -62 -197 -4 -86 -11 -147 -17 -146 -5 1 -26 56
-46 122 -35 118 -58 161 -86 161 -7 0 -13 6 -13 13 0 44 -84 64 -99 25z"/>
<path d="M2313 1958 c-12 -16 -31 -184 -40 -349 -5 -105 -3 -135 12 -185 10
-32 22 -64 26 -69 4 -6 28 -11 53 -13 72 -3 79 15 66 168 -9 114 -8 142 5 128
9 -9 72 -164 95 -234 25 -75 48 -94 85 -70 35 23 45 74 45 241 0 83 5 197 10
254 11 119 5 141 -40 141 -20 0 -33 -7 -41 -22 -10 -19 -26 -192 -28 -307 -1
-44 -19 -9 -51 98 -36 121 -53 157 -77 165 -10 3 -26 19 -35 36 -13 23 -24 30
-46 30 -16 0 -34 -6 -39 -12z"/>
<path d="M59 1152 c-31 -26 -40 -82 -46 -292 -5 -181 -4 -199 16 -251 26 -69
59 -102 97 -97 l29 3 5 95 5 95 55 -94 c83 -142 117 -172 154 -135 24 24 20
45 -24 113 -52 80 -100 176 -100 198 0 10 14 45 30 77 34 67 40 147 15 195
-21 42 -71 79 -113 86 -20 3 -52 10 -70 14 -25 7 -37 5 -53 -7z m140 -126 c7
-8 12 -33 13 -56 0 -32 -6 -48 -27 -70 -16 -16 -32 -27 -37 -24 -9 6 -11 107
-2 152 5 26 9 30 24 22 9 -5 22 -16 29 -24z"/>
<path d="M2261 1129 c-32 -53 -46 -153 -46 -335 l0 -171 30 -48 c45 -73 72
-88 147 -86 42 1 68 7 82 19 33 29 56 96 66 193 13 125 13 415 0 440 -7 12
-21 19 -40 19 -19 0 -33 -7 -40 -19 -6 -12 -10 -104 -10 -228 0 -205 -12 -302
-37 -310 -26 -9 -37 66 -42 293 -7 251 -9 264 -62 264 -22 0 -34 -8 -48 -31z"/>
<path d="M2682 1147 c-23 -28 -36 -135 -36 -317 -1 -174 0 -188 23 -238 13
-29 33 -59 45 -67 25 -18 73 -20 79 -2 3 6 2 49 -1 95 -5 90 4 104 32 46 33
-70 118 -193 136 -199 30 -10 60 12 60 43 0 15 -15 50 -34 78 -41 60 -106 186
-106 204 0 7 14 37 31 67 26 45 32 66 32 117 1 77 -22 122 -79 152 -51 28
-166 41 -182 21z m156 -126 c27 -33 4 -119 -38 -141 -16 -9 -22 -8 -26 5 -7
17 4 154 13 168 5 8 29 -7 51 -32z"/>
<path d="M1925 1140 c-3 -5 -17 -10 -30 -10 -33 0 -53 -33 -81 -133 -31 -113
-84 -379 -84 -425 0 -54 11 -66 55 -59 46 8 44 5 59 64 l12 48 49 0 50 0 6
-39 c7 -41 21 -56 55 -56 31 0 48 25 40 60 -5 26 -2 32 19 40 35 13 47 42 29
68 -8 12 -21 22 -29 22 -8 0 -16 4 -20 9 -3 6 -16 98 -30 206 -13 107 -27 200
-30 205 -8 13 -62 13 -70 0z m21 -338 l7 -82 -31 0 c-17 0 -33 4 -36 8 -4 7
17 121 30 161 10 31 23 -8 30 -87z"/>
<path d="M3315 1140 c-3 -5 -16 -10 -29 -10 -47 0 -75 -65 -120 -275 -41 -196
-48 -237 -44 -290 3 -46 5 -50 30 -53 41 -5 61 11 78 65 16 46 18 48 58 51 34
3 43 -1 48 -15 20 -65 34 -83 63 -83 35 0 55 27 45 64 -5 20 0 27 23 38 46 22
40 88 -8 88 -13 0 -20 9 -23 33 -3 17 -7 48 -10 67 -3 19 -13 95 -21 169 -9
74 -21 141 -27 148 -12 15 -54 17 -63 3z m10 -272 c3 -18 6 -58 8 -88 l2 -55
-32 -3 c-18 -2 -33 0 -33 5 0 28 34 173 41 173 4 0 11 -15 14 -32z"/>
<path d="M3642 1133 c-16 -15 -21 -40 -31 -148 -21 -238 -13 -398 21 -451 11
-17 86 -26 110 -13 20 11 21 16 14 150 -4 81 -3 139 2 139 5 0 33 -62 61 -137
29 -76 56 -145 60 -153 13 -25 61 -18 84 12 19 25 21 49 28 310 4 156 4 287 0
291 -17 17 -66 3 -78 -23 -6 -14 -15 -89 -19 -167 -4 -79 -10 -143 -14 -143
-5 0 -28 60 -52 133 -37 114 -47 134 -70 145 -16 7 -28 19 -28 27 0 15 -37 45
-56 45 -7 0 -21 -8 -32 -17z"/>
<path d="M542 1117 c-6 -6 -20 -50 -33 -97 -19 -72 -22 -112 -23 -267 -1 -198
1 -207 53 -205 16 0 47 -8 67 -19 50 -25 124 -25 155 0 20 16 22 23 14 47 -9
26 -16 29 -65 34 l-55 5 0 75 0 75 31 3 c46 4 71 35 56 67 -9 18 -19 25 -41
25 -16 0 -33 5 -36 11 -4 5 -4 42 0 81 l7 70 29 -6 c16 -3 42 -9 57 -12 50
-10 82 45 47 79 -31 31 -243 59 -263 34z"/>
<path d="M1035 1118 c-11 -7 -35 -18 -54 -23 -24 -7 -40 -21 -54 -49 -26 -50
-17 -91 63 -269 33 -75 61 -152 63 -173 2 -37 1 -39 -26 -36 -36 5 -57 -13
-57 -49 0 -39 33 -59 98 -59 95 0 122 34 122 152 0 84 -17 158 -61 267 -17 42
-35 91 -39 109 l-8 33 42 -6 c48 -8 70 8 64 46 -7 48 -108 85 -153 57z"/>
<path d="M1350 1119 c-48 -15 -60 -27 -60 -60 0 -33 28 -52 64 -43 23 5 24 3
30 -53 7 -62 26 -360 26 -404 0 -19 10 -34 38 -53 44 -30 64 -32 86 -11 13 14
15 43 9 218 -3 111 -3 228 1 260 7 52 10 57 32 57 23 0 64 31 64 48 0 5 -6 17
-14 28 -13 17 -28 19 -128 21 -62 1 -129 -3 -148 -8z"/>
<path d="M4163 1121 c-46 -12 -63 -29 -63 -62 0 -33 28 -52 63 -44 23 6 25 3
30 -42 3 -26 12 -137 18 -245 l12 -198 37 -25 c42 -29 57 -31 80 -10 16 14 17
38 12 239 -6 262 -2 296 33 296 24 0 65 31 65 48 0 5 -6 17 -14 28 -13 17 -28
19 -128 21 -62 1 -128 -2 -145 -6z"/>
<path d="M710 33 l0 -26 203 6 c111 4 795 7 1520 7 1310 0 1317 0 1317 20 0
20 -7 20 -1520 20 l-1520 0 0 -27z"/>
</g>
</svg>
